<svg width="115" height="41" viewBox="0 0 115 41" fill="none" xmlns="http://www.w3.org/2000/svg">
<path d="M26.96 2.12C24.96 2.01333 23.1733 2.24 21.6 2.8C20.0533 3.36 18.7333 4.12 17.64 5.08C16.5733 6.01333 15.7467 7.04 15.16 8.16C14.6 9.28 14.32 10.36 14.32 11.4C14.32 12.3867 14.5467 13.2 15 13.84C15.4533 14.4533 16.04 14.9067 16.76 15.2C17.5067 15.4933 18.2667 15.64 19.04 15.64C20 15.64 20.84 15.44 21.56 15.04C22.28 14.64 22.88 14.16 23.36 13.6C23.8667 13.0133 24.24 12.4667 24.48 11.96C24.7467 11.4267 24.88 11.04 24.88 10.8V10.76C25.0133 10.6 25.1467 10.52 25.28 10.52C25.5467 10.52 25.68 10.7067 25.68 11.08C25.5467 12.2267 25.1333 13.2267 24.44 14.08C23.7733 14.9333 22.96 15.5867 22 16.04C21.04 16.4933 20.0267 16.72 18.96 16.72C17.8667 16.72 16.8133 16.4533 15.8 15.92C14.7867 15.3867 13.96 14.6133 13.32 13.6C12.68 12.5867 12.36 11.36 12.36 9.92C12.36 8.74666 12.6133 7.58666 13.12 6.44C13.6533 5.26666 14.44 4.2 15.48 3.24C16.5467 2.25333 17.8933 1.46666 19.52 0.879999C21.1467 0.293332 23.0667 -1.90735e-06 25.28 -1.90735e-06C27.2267 -1.90735e-06 29 0.186665 30.6 0.559998C32.2 0.906665 33.72 1.36 35.16 1.92C36.6 2.45333 38.08 2.97333 39.6 3.48C39.8933 3.08 40.24 2.65333 40.64 2.2C41.04 1.74666 41.48 1.36 41.96 1.04C42.44 0.719998 42.92 0.559998 43.4 0.559998C43.9333 0.559998 44.2 0.719998 44.2 1.04C44.2 1.36 44.0133 1.52 43.64 1.52C43.2933 1.52 42.92 1.66666 42.52 1.96C42.1467 2.22667 41.8 2.54667 41.48 2.92C41.16 3.26667 40.9067 3.57333 40.72 3.84C42.6667 4.48 44.5067 5.02667 46.24 5.48C48 5.93333 49.52 6.16 50.8 6.16C52 6.16 52.8533 6.06666 53.36 5.88C53.8933 5.69333 54.16 5.38666 54.16 4.96C54.16 4.8 54.1867 4.66667 54.24 4.56C54.32 4.42667 54.4533 4.36 54.64 4.36C54.7733 4.36 54.8667 4.48 54.92 4.72C54.9733 4.93333 55 5.10666 55 5.24C55 5.88 54.6533 6.4 53.96 6.8C53.2933 7.2 52.4533 7.4 51.44 7.4C50.56 7.4 49.48 7.28 48.2 7.04C46.9467 6.8 45.6133 6.48 44.2 6.08C42.8133 5.68 41.4667 5.24 40.16 4.76C39.8667 5.24 39.6267 5.69333 39.44 6.12C39.2533 6.54667 39.0267 7.09333 38.76 7.76C38.28 9.01333 37.8 10.3067 37.32 11.64C36.8667 12.9467 36.44 14.16 36.04 15.28C35.64 16.3733 35.32 17.2667 35.08 17.96C34.28 20.3067 33.2133 22.5867 31.88 24.8C30.5467 27.0133 28.9733 29.0133 27.16 30.8C25.3467 32.5867 23.2933 34 21 35.04C18.7067 36.1067 16.1867 36.64 13.44 36.64C11.8933 36.64 10.32 36.4533 8.72001 36.08C7.14667 35.7333 5.69334 35.1467 4.36001 34.32C3.05334 33.4933 2.00001 32.3733 1.20001 30.96C0.400007 29.5733 7.30902e-06 27.84 7.30902e-06 25.76C7.30902e-06 24.2667 0.253341 22.8667 0.760007 21.56C1.26667 20.2533 1.93334 19.2 2.76001 18.4C3.58667 17.5733 4.46667 17.16 5.40001 17.16C5.72001 17.16 5.88001 17.24 5.88001 17.4C5.88001 17.56 5.70667 17.6933 5.36001 17.8C4.69334 17.96 4.04001 18.3733 3.40001 19.04C2.78667 19.68 2.28001 20.5333 1.88001 21.6C1.48001 22.6667 1.28001 23.9333 1.28001 25.4C1.28001 27.16 1.64001 28.6 2.36001 29.72C3.10667 30.84 4.05334 31.72 5.20001 32.36C6.34667 33 7.53334 33.44 8.76001 33.68C10.0133 33.9467 11.16 34.08 12.2 34.08C14.8133 34.08 17.2133 33.6133 19.4 32.68C21.6133 31.7733 23.6133 30.5067 25.4 28.88C27.1867 27.2533 28.76 25.3867 30.12 23.28C31.48 21.1467 32.64 18.8667 33.6 16.44C34.1333 15.1067 34.7333 13.6667 35.4 12.12C36.0667 10.5467 36.7067 9.06667 37.32 7.68C38.0133 6.18666 38.5867 5.06666 39.04 4.32C37.5733 3.81333 35.8933 3.36 34 2.96C32.1333 2.56 29.7867 2.28 26.96 2.12ZM39.32 27.48C39.32 26.7067 39.4 25.9067 39.56 25.08C39.7467 24.2267 39.9333 23.4267 40.12 22.68C40.5467 21.1333 41.1333 19.4533 41.88 17.64C42.6267 15.8 43.3867 14.0667 44.16 12.44C44.6133 11.5067 45.0933 10.7733 45.6 10.24C46.1067 9.68 46.5467 9.33333 46.92 9.2C47.9867 8.85333 48.72 8.68 49.12 8.68C49.28 8.68 49.36 8.70666 49.36 8.76C49.36 8.84 49.1733 8.97333 48.8 9.16C48.6133 9.24 48.2667 9.61333 47.76 10.28C47.28 10.9467 46.7333 11.8533 46.12 13C45.2933 14.5467 44.5733 16.1867 43.96 17.92C43.3467 19.6267 42.8533 21.2667 42.48 22.84C42.3733 23.3733 42.2267 24.0667 42.04 24.92C41.88 25.7467 41.8 26.5467 41.8 27.32C41.8 28.0133 41.9067 28.6133 42.12 29.12C42.3333 29.6267 42.7333 29.88 43.32 29.88C43.96 29.88 44.5867 29.6133 45.2 29.08C45.8133 28.5467 46.3867 27.88 46.92 27.08C47.48 26.2533 47.9867 25.3867 48.44 24.48C48.8933 23.5733 49.28 22.7467 49.6 22C49.92 22 50.08 22.12 50.08 22.36C49.7067 23.24 49.28 24.2 48.8 25.24C48.32 26.2533 47.7733 27.2267 47.16 28.16C46.5467 29.0667 45.8533 29.8 45.08 30.36C44.3067 30.9467 43.44 31.24 42.48 31.24C41.2533 31.24 40.4133 30.8667 39.96 30.12C39.5333 29.4 39.32 28.52 39.32 27.48ZM51.9941 29.72C50.9007 29.72 50.0874 29.3333 49.5541 28.56C49.0474 27.76 48.7941 26.8 48.7941 25.68C48.7941 24.64 48.9941 23.56 49.3941 22.44C49.8207 21.2133 50.4074 20.0933 51.1541 19.08C51.9274 18.0667 52.7674 17.2533 53.6741 16.64C54.6074 16 55.5274 15.68 56.4341 15.68C57.5274 15.68 58.3274 16.0533 58.8341 16.8C59.3674 17.5467 59.6341 18.4933 59.6341 19.64C59.6341 20.44 59.5007 21.28 59.2341 22.16C58.9674 23.04 58.6074 23.9067 58.1541 24.76C58.5007 25.1067 58.9941 25.28 59.6341 25.28C60.3807 25.28 61.0207 25.04 61.5541 24.56C62.0874 24.08 62.6074 23.2267 63.1141 22C63.4341 22 63.5941 22.12 63.5941 22.36C63.0874 23.5867 62.5007 24.4933 61.8341 25.08C61.1941 25.64 60.3674 25.9067 59.3541 25.88C58.7407 25.88 58.2341 25.7067 57.8341 25.36C57.0874 26.5867 56.1941 27.6267 55.1541 28.48C54.1407 29.3067 53.0874 29.72 51.9941 29.72ZM52.5541 28.84C53.1674 28.84 53.7807 28.5867 54.3941 28.08C55.0074 27.5467 55.5674 26.9467 56.0741 26.28C56.5807 25.6133 56.9407 25.04 57.1541 24.56C56.7274 23.7867 56.4741 23.2133 56.3941 22.84C56.3407 22.44 56.3141 22.1467 56.3141 21.96C56.3141 21.4533 56.4474 21.0667 56.7141 20.8C56.9807 20.5333 57.2474 20.4 57.5141 20.4C57.8874 20.4 58.2074 20.56 58.4741 20.88C58.5274 20.5867 58.5674 20.32 58.5941 20.08C58.6207 19.8133 58.6341 19.56 58.6341 19.32C58.6341 18.6267 58.5007 18.0667 58.2341 17.64C57.9941 17.1867 57.6074 16.96 57.0741 16.96C56.5141 16.96 55.9274 17.2 55.3141 17.68C54.7007 18.16 54.1141 18.8 53.5541 19.6C53.0207 20.4 52.5541 21.2933 52.1541 22.28C51.8074 23.1067 51.5407 23.8933 51.3541 24.64C51.1674 25.36 51.0741 26.0267 51.0741 26.64C51.0741 27.3067 51.1941 27.84 51.4341 28.24C51.6741 28.64 52.0474 28.84 52.5541 28.84ZM71.2697 19.48C71.5097 19 71.7364 18.5333 71.9497 18.08C72.1897 17.6267 72.403 17.1867 72.5897 16.76C72.883 16.1733 73.403 15.88 74.1497 15.88H76.3497C75.763 16.36 75.163 17.08 74.5497 18.04C73.963 19 73.3097 20.2267 72.5897 21.72C72.403 22.12 72.163 22.6267 71.8697 23.24C71.5764 23.8533 71.3097 24.5067 71.0697 25.2C70.8564 25.8933 70.7497 26.5867 70.7497 27.28C70.7497 28.2133 71.083 28.68 71.7497 28.68C72.6564 28.68 73.5364 28.0533 74.3897 26.8C75.243 25.5467 76.083 23.9467 76.9097 22C77.123 22 77.243 22.0133 77.2697 22.04C77.323 22.0667 77.363 22.1733 77.3897 22.36C77.0964 23.08 76.7364 23.8667 76.3097 24.72C75.9097 25.5467 75.443 26.3467 74.9097 27.12C74.403 27.8933 73.8297 28.52 73.1897 29C72.5764 29.48 71.8964 29.72 71.1497 29.72C70.483 29.72 69.9364 29.48 69.5097 29C69.083 28.4933 68.8697 27.7867 68.8697 26.88C68.8697 26 69.0964 24.9733 69.5497 23.8L70.0697 22.52C69.483 23.1867 68.8564 23.76 68.1897 24.24C67.523 24.6933 66.8164 24.92 66.0697 24.92C65.1364 24.92 64.4697 24.68 64.0697 24.2C63.6964 23.6933 63.523 23.08 63.5497 22.36C63.2564 22.36 63.1097 22.24 63.1097 22C63.1364 21.92 63.2564 21.6667 63.4697 21.24C63.683 20.8133 63.9364 20.3067 64.2297 19.72C64.523 19.1333 64.803 18.5733 65.0697 18.04C65.363 17.48 65.5897 17.0533 65.7497 16.76C66.0697 16.1733 66.5764 15.88 67.2697 15.88H69.2697C68.8164 16.2267 68.4164 16.6133 68.0697 17.04C67.7497 17.44 67.2964 18.1867 66.7097 19.28C65.9097 20.8 65.5497 21.9733 65.6297 22.8C65.7097 23.6 66.003 24 66.5097 24C67.3897 24 68.2964 23.48 69.2297 22.44C69.8964 21.6667 70.5497 20.7333 71.1897 19.64L71.2697 19.48ZM79.7788 29.88C78.7921 29.88 77.8988 29.56 77.0988 28.92C76.3254 28.28 75.9388 27.3067 75.9388 26C75.9388 24.9067 76.1788 23.7467 76.6588 22.52C77.1654 21.2933 77.8188 20.1467 78.6188 19.08C79.4454 17.9867 80.3521 17.1067 81.3388 16.44C82.3521 15.7467 83.3654 15.4 84.3788 15.4C84.8854 15.4 85.3788 15.5467 85.8588 15.84C86.3388 16.1333 86.5788 16.64 86.5788 17.36C86.5788 18.0267 86.3254 18.76 85.8188 19.56C85.3121 20.36 84.5921 21.1067 83.6588 21.8C83.2588 22.0933 82.7521 22.3733 82.1388 22.64C81.5254 22.9067 80.9121 23.1333 80.2988 23.32C79.6854 23.48 79.1788 23.56 78.7788 23.56C78.6454 23.88 78.5121 24.3067 78.3788 24.84C78.2721 25.3733 78.2188 25.92 78.2188 26.48C78.2188 27.1467 78.3521 27.7467 78.6188 28.28C78.8854 28.8133 79.3788 29.08 80.0988 29.08C80.9788 29.08 81.7921 28.8267 82.5388 28.32C83.3121 27.8133 83.9921 27.1733 84.5788 26.4C85.1921 25.6267 85.7121 24.84 86.1388 24.04C86.5654 23.24 86.8988 22.56 87.1388 22C87.4588 22 87.6188 22.12 87.6188 22.36C87.2721 23.1067 86.8721 23.92 86.4188 24.8C85.9921 25.68 85.4721 26.5067 84.8588 27.28C84.2721 28.0267 83.5521 28.6533 82.6988 29.16C81.8721 29.64 80.8988 29.88 79.7788 29.88ZM79.0588 22.84C79.4321 22.84 80.0588 22.7067 80.9388 22.44C81.8188 22.1467 82.6188 21.6933 83.3388 21.08C84.0321 20.4667 84.5654 19.8 84.9388 19.08C85.3121 18.3333 85.4988 17.7067 85.4988 17.2C85.4988 16.6133 85.2854 16.32 84.8588 16.32C84.5388 16.32 84.0988 16.5333 83.5388 16.96C82.9788 17.3867 82.2854 18.1067 81.4588 19.12C80.9521 19.76 80.4721 20.4533 80.0188 21.2C79.5654 21.9467 79.2454 22.4933 79.0588 22.84ZM80.8531 40.64C80.5331 40.64 80.2665 40.6 80.0531 40.52C79.8131 40.4667 79.5065 40.44 79.1331 40.44C79.2398 40.28 79.5065 39.8133 79.9331 39.04C80.3331 38.2933 80.8265 37.3467 81.4131 36.2C81.9998 35.08 82.6265 33.8533 83.2931 32.52C83.9331 31.2133 84.5598 29.92 85.1731 28.64C85.7865 27.3333 86.3065 26.1333 86.7331 25.04C87.1865 23.92 87.4798 23.0267 87.6131 22.36C87.4798 22.36 87.3598 22.3333 87.2531 22.28C87.1465 22.2267 87.1065 22.1333 87.1331 22C87.1331 22 87.2131 21.76 87.3731 21.28C87.5331 20.8 87.6931 20.2267 87.8531 19.56C88.0131 18.8667 88.0931 18.24 88.0931 17.68C88.0931 17.3067 88.0531 16.9867 87.9731 16.72C87.8931 16.4533 87.7465 16.3067 87.5331 16.28L89.5331 15.96C89.6931 15.9333 89.8398 15.92 89.9731 15.92C90.1065 15.8933 90.2265 15.88 90.3331 15.88C90.5731 15.88 90.7331 15.9733 90.8131 16.16C90.9198 16.32 90.9731 16.6667 90.9731 17.2C90.9731 17.8667 90.8531 18.72 90.6131 19.76C90.3998 20.7733 90.1465 21.6667 89.8531 22.44C90.1465 21.96 90.5198 21.3467 90.9731 20.6C91.4531 19.8533 91.9998 19.0933 92.6131 18.32C93.2265 17.5467 93.8665 16.9067 94.5331 16.4C95.1998 15.8667 95.8531 15.6 96.4931 15.6C96.6265 15.6 96.7998 15.6267 97.0131 15.68C97.7598 15.8667 98.2798 16.24 98.5731 16.8C98.8931 17.3333 99.0531 17.9733 99.0531 18.72C99.0531 19.52 98.8931 20.4 98.5731 21.36C98.2798 22.32 97.8798 23.2667 97.3731 24.2C96.8665 25.1067 96.3065 25.9333 95.6931 26.68C94.9465 27.6133 94.0531 28.36 93.0131 28.92C91.9731 29.48 90.9065 29.76 89.8131 29.76C88.8265 29.76 87.9065 29.5067 87.0531 29L83.1731 38.56C82.7998 39.4667 82.4265 40.04 82.0531 40.28C81.6798 40.52 81.2798 40.64 80.8531 40.64ZM88.5331 28.92C89.2798 28.92 90.1198 28.5733 91.0531 27.88C91.9865 27.1867 92.8798 26.3067 93.7331 25.24C94.6131 24.1467 95.3465 23.0533 95.9331 21.96C96.3331 21.2133 96.6265 20.5333 96.8131 19.92C96.9998 19.28 97.0931 18.7333 97.0931 18.28C97.0931 17.24 96.7198 16.72 95.9731 16.72C95.6265 16.72 95.1731 16.9067 94.6131 17.28C94.0798 17.6533 93.4531 18.3333 92.7331 19.32C91.9598 20.3867 91.1065 21.7333 90.1731 23.36C89.2665 24.96 88.3331 26.6533 87.3731 28.44C87.6931 28.76 88.0798 28.92 88.5331 28.92ZM102.211 22.72L101.971 23.28C103.171 21.6533 104.437 20.2667 105.771 19.12C107.131 17.9467 108.411 17.0533 109.611 16.44C110.811 15.8 111.757 15.48 112.451 15.48C113.357 15.48 113.917 15.72 114.131 16.2C114.211 16.3867 114.251 16.5867 114.251 16.8C114.251 17.2 114.117 17.5733 113.851 17.92C113.584 18.24 113.211 18.4 112.731 18.4C112.704 18.4 112.651 18.4 112.571 18.4C112.491 18.4 112.424 18.3867 112.371 18.36C112.317 17.9867 112.184 17.6667 111.971 17.4C111.757 17.1333 111.344 17 110.731 17C110.037 17 109.357 17.2933 108.691 17.88C108.051 18.44 107.504 19.2133 107.051 20.2C106.624 21.16 106.384 22.24 106.331 23.44C106.304 24.2667 106.357 25.1067 106.491 25.96C106.651 26.7867 106.931 27.48 107.331 28.04C107.731 28.5733 108.291 28.84 109.011 28.84C109.651 28.84 110.237 28.6 110.771 28.12C111.304 27.64 111.797 27.04 112.251 26.32C112.704 25.5733 113.104 24.8133 113.451 24.04C113.797 23.2667 114.104 22.5867 114.371 22C114.691 22 114.851 22.12 114.851 22.36C114.344 23.5867 113.797 24.7867 113.211 25.96C112.651 27.1333 111.971 28.1067 111.171 28.88C110.371 29.6267 109.397 30 108.251 30C106.944 30 105.957 29.5867 105.291 28.76C104.624 27.9067 104.237 26.8 104.131 25.44C104.024 24.08 104.171 22.6133 104.571 21.04C103.664 22.08 102.931 23 102.371 23.8C101.837 24.5733 101.357 25.36 100.931 26.16C100.531 26.96 100.091 27.9067 99.6106 29C99.4773 29.32 99.304 29.4933 99.0906 29.52C98.904 29.5467 98.5973 29.56 98.1706 29.56H97.4106C97.3306 29.56 97.2373 29.6 97.1306 29.68C97.024 29.7333 96.9173 29.7867 96.8106 29.84C97.1306 29.2 97.464 28.5333 97.8106 27.84C98.1306 27.1467 98.5173 26.3333 98.9706 25.4C99.424 24.4667 99.9573 23.3333 100.571 22C100.624 21.92 100.784 21.5467 101.051 20.88C101.344 20.1867 101.744 19.3067 102.251 18.24C102.784 17.12 103.304 16.2933 103.811 15.76C104.317 15.2267 104.891 14.96 105.531 14.96C105.771 14.96 105.957 14.9867 106.091 15.04C106.224 15.0933 106.491 15.12 106.891 15.12C105.931 16.16 105.117 17.3067 104.451 18.56C103.811 19.8133 103.064 21.2 102.211 22.72Z" fill="white"/>
</svg>
